# xmcd
# Copyright (C) 1995-1998 Ti Kan
#
# Track frame offsets:
#       150
#       4351
#       101068
#       211573
#
# Disc length: 4009 seconds
#
# Revision: 0
# Processed by: cddbd v1.5.2PL0 Copyright (c) Steve Scherf et al.
# Submitted via: CD-Import v1.0
#
DISCID=2a0fa704
DTITLE=Herr Der Ringe - Herr Der Ringe 2
DYEAR=1900
DGENRE=
TTITLE0=Anmodi Hdr2
TTITLE1=Hdr 2.1
TTITLE2=Hdr 2.2
TTITLE3=Hdr 2.3
EXTD=
EXTT0=
EXTT1=
EXTT2=
EXTT3=
PLAYORDER=
